<svg width="512" height="102" viewBox="0 0 512 102" fill="none" xmlns="http://www.w3.org/2000/svg">
<path d="M152.329 63.2693C152.329 41.1403 166.546 25.2832 188.593 25.2832C209.22 25.2832 221.79 37.5238 223.589 54.2407H201.137C200.427 48.3986 197.918 42.0001 188.998 42.0001C179.799 42.0001 175.187 49.9412 175.187 63.2945C175.187 76.6478 179.647 84.5891 188.998 84.5891C197.791 84.5891 200.427 78.5952 201.137 72.0703H223.589C222.474 89.0401 209.651 101.306 189.15 101.306C166.546 101.255 152.329 85.5248 152.329 63.2693Z" fill="white"/>
<path d="M279.596 25.4077V46.1458C277.67 45.8424 276.326 45.6906 274.705 45.6906C264.011 45.6906 254.229 52.3672 254.229 65.9734V101.228H231.827V25.3824H254.229V37.8252H254.533C258.233 29.8335 264.771 24.8008 273.083 24.8008C275.135 24.8261 276.935 24.826 279.596 25.4077Z" fill="white"/>
<path d="M280.605 80.237C280.605 65.4928 292.744 59.7772 307.949 56.5906C315.754 54.9215 326.777 53.8086 326.777 46.702C326.777 42.8073 323.711 40.3036 317.3 40.3036C309.064 40.3036 305.313 43.642 304.604 50.5968H283.418C284.128 36.9653 294.163 25.2559 318.288 25.2559C337.674 25.2559 348.419 33.0452 348.419 54.8961V82.4626C348.419 86.2309 348.85 89.5692 351.08 89.5692C351.637 89.5692 352.043 89.5692 352.904 89.4427V100.014C348.444 100.849 343.832 101.279 340.639 101.279C331.719 101.279 328.374 96.2712 327.259 90.2774H326.98C321.962 96.5494 313.727 101.127 303.413 101.127C289.399 101.127 280.605 92.9075 280.605 80.237ZM326.777 70.0703V64.0765C323.838 65.1892 320.493 66.0238 314.639 67.4148C306.403 69.3622 303.489 72.8522 303.489 77.8597C303.489 83.2972 306.986 85.8009 312.688 85.8009C321.608 85.8009 326.777 78.2896 326.777 70.0703Z" fill="white"/>
<path d="M401.814 83.8537V99.5844C397.075 100.697 393.02 101.127 388.56 101.127C372.95 101.127 366.26 94.0204 366.26 76.6207V41.9729H356.352V25.256H366.26V8.56445H388.56V25.256H400.978V41.9476H388.56V76.0391C388.56 83.702 391.5 84.3848 395.808 84.3848C397.886 84.4101 399.153 84.2836 401.814 83.8537Z" fill="white"/>
<path d="M480.449 69.2358H429.132C429.132 79.1243 436.101 84.5364 444.464 84.5364C451.762 84.5364 456.07 79.5542 457.464 75.9376H480.195C476.141 90.4037 463.977 101.228 443.906 101.228C420.77 101.228 406.807 85.4975 406.807 63.242C406.807 42.3775 419.908 25.2559 443.906 25.2559C468.158 25.2559 480.449 39.5955 480.449 65.8975V69.2358ZM457.996 55.4778C457.996 46.2975 452.548 41.4164 443.906 41.4164C435.392 41.4164 429.817 46.2975 429.259 55.4778H457.996Z" fill="white"/>
<path d="M512 75.9629H488.002V101.253H512V75.9629Z" fill="white"/>
<path d="M122.271 0.142578H144.571V101.304H122.271V91.9718H121.992C119.205 95.74 111.678 101.304 101.364 101.304C82.409 101.304 70.2705 86.8379 70.2705 63.4444C70.2705 40.0508 82.409 25.5847 101.364 25.5847C111.678 25.5847 119.205 31.1485 121.992 34.9168H122.271V0.142578ZM121.866 63.4444C121.866 49.5347 116.569 42.3015 107.497 42.3015C98.4247 42.3015 93.1284 49.5347 93.1284 63.4444C93.1284 77.354 98.4247 84.5871 107.497 84.5871C116.569 84.6123 121.866 77.354 121.866 63.4444Z" fill="white"/>
<path d="M60.6175 63.445C60.6175 54.5176 62.2393 46.5258 65.2042 39.748C60.9722 29.4296 51.5199 25.4336 37.6329 25.4336C13.5079 25.4336 3.47273 37.1178 2.76317 50.7492H23.9739C24.6581 43.7944 28.434 40.4561 36.6699 40.4561C43.0813 40.4561 46.1476 42.9599 46.1476 46.8546C46.1476 53.9612 35.1241 55.0739 27.3189 56.743C12.1141 59.9549 0.000976562 65.6452 0.000976562 80.4148C0.000976562 93.0852 8.79442 101.279 22.7322 101.279C33.0714 101.279 41.282 96.6765 46.2996 90.4298H46.5784C47.6934 96.3983 51.0384 101.279 59.9586 101.279C67.9411 101.279 72.2238 99.7619 72.2238 99.7619C63.0249 87.0156 60.6175 77.8858 60.6175 63.445ZM46.1476 70.2735C46.1476 78.4928 41.0033 86.004 32.0578 86.004C26.356 86.004 22.8589 83.5002 22.8589 78.0628C22.8589 73.0553 25.7985 69.5652 34.009 67.6432C39.8629 66.2522 43.208 65.4176 46.1476 64.3048V70.2735Z" fill="white"/>
</svg>
